<svg id="Capa_1" enable-background="new 0 0 512.044 512.044" height="512" viewBox="0 0 512.044 512.044" width="512" xmlns="http://www.w3.org/2000/svg"><g><path d="m265.221 49.935c-124.642 0-225.685 101.043-225.685 225.685 58.912 63.331 121.3 133.049 166.082 217.714 18.989 5.187 38.97 7.971 59.604 7.971 124.643 0 225.685-101.043 225.685-225.685s-101.043-225.685-225.686-225.685z" fill="#8cade0"/><path d="m253.896 117.79c-14.625-14.626-34.813-20.322-53.894-16.867-.831-1.413-1.685-2.835-2.563-4.27l37.407-26.192c7.394-5.178 12.528-12.238 15.319-20.014-110.847 7.303-199.819 94.626-209.699 204.75 10.388-1.872 20.129-7.648 26.757-17.113l26.191-37.406c1.421.87 2.832 1.717 4.232 2.541-3.535 19.291 2.435 39.447 16.905 53.917 17.24 17.239 45.983 14.791 60.02-5.252l30.199-43.128c.58-.828-1.695 1.041 43.875-30.946 20.007-14.009 22.553-42.718 5.251-60.02z" fill="#7c91db"/><path d="m39.536 275.62c0 104.009 70.364 191.569 166.082 217.714 15.812-22.827 34.736-48.466 21.325-83.926-7.634-20.186-66.349-38.316-48.87-67.969 6.166-10.46 20.863-31.726 15.728-49.993-5.135-18.268-40.205-18.928-56.172-1.124-14.623 16.305-45.268-8.818-45.124-32.598.186-30.877 57.482-23.574 64.223-54.469 7.39-33.871 16.9-68.654-.562-89.314-6.212-7.35-12.368-15.942-19.147-24.063-58.891 40.726-97.483 108.722-97.483 185.742z" fill="#96d78d"/><path d="m40.461 255.198c10.389-1.871 20.133-7.648 26.761-17.114l26.191-37.406c1.421.87 2.832 1.717 4.232 2.541-2.286 12.477-.573 25.307 4.821 36.736 16.765-11.899 49.284-13.894 54.26-36.699 7.39-33.871 16.9-68.654-.562-89.314-6.212-7.349-12.368-15.941-19.147-24.063-53.625 37.084-90.406 96.786-96.556 165.319z" fill="#6fcb8e"/><path d="m397.821 92.997c-14.394 19.239-30.755 44.143-59.184 39.926-46.416-6.886-57.451 17.617-66.309 46.161-9.181 29.584.894 59.004 16.832 66.309 18.363 8.416 44.631 13.517 53.558-6.631 4.036-9.11 4.65-30.201 29.074-29.329s40.997-7.906 52.831 15.739c16.769 33.506 28.752 67.566-16.608 69.025-45.36 1.46-65.547.973-75.142 14.057-9.595 13.085-18.524 35.984-9.972 55.487 12.177 27.768-4.337 76.424 38.824 115.934 76.362-36.178 129.182-113.944 129.182-204.056 0-75.085-36.679-141.595-93.086-182.622z" fill="#96d78d"/><path d="m149.926 210.661c36.65 32.679 217.744 126.962 347.114 103.886 9.455-1.686 10.203-14.941.963-17.564-118.484-33.629-234.001-83.43-288.029-143.818z" fill="#f4ec84"/><path d="m313.967 292.431c-22.972-25.408-29.133-59.459-28.241-80.613-30.996-18.129-57.058-37.757-75.753-58.653l-60.048 57.496c20.616 18.382 86.935 56.255 164.042 81.77z" fill="#f0d78b"/><g><path d="m12.622 166.077 44.734-85.625 49.181 49.181-63.889 91.243c-4.182 5.972-12.742 6.721-17.898 1.566l-4.128-4.128c-13.793-13.794-17.033-34.947-8-52.237z" fill="#8cade0"/><path d="m162.838 15.861-85.625 44.734 49.181 49.181 91.243-63.889c5.972-4.182 6.721-12.742 1.566-17.898l-4.128-4.128c-13.793-13.794-34.947-17.033-52.237-8z" fill="#8cade0"/><path d="m149.996 234.676 30.198-43.128c2.211-3.158 4.958-5.904 8.115-8.115l43.128-30.198c4.749-3.326 5.345-10.133 1.245-14.233-9.551-9.551-24.198-11.795-36.171-5.54l-10.848 5.668c-14.393-36.001-51.419-78.924-73.563-101.068-21.339-21.339-59.501-24.904-80.841-3.564-21.339 21.34-17.775 59.502 3.565 80.841 22.144 22.144 65.066 59.17 101.067 73.563l-5.668 10.848c-6.255 11.972-4.011 26.619 5.54 36.171 4.1 4.1 10.908 3.505 14.233-1.245z" fill="#cbe7f8"/></g><path d="m500.05 289.768c-.687-.195-1.368-.392-2.054-.588 5.353-91.888-43.328-177.044-123.58-219.65-3.659-1.942-8.199-.551-10.141 3.107-1.942 3.659-.552 8.199 3.107 10.142 6.868 3.646 13.484 7.626 19.838 11.909-12.778 17.177-26.307 33.965-47.484 30.815-51.728-7.67-65.202 21.164-74.572 51.357-1.16 3.737-2.048 7.534-2.68 11.364-12.024-8.275-22.734-16.67-32.039-25.139l5.294-3.707c8.575-6.005 9.635-18.29 2.246-25.68-11.929-11.931-29.993-14.697-44.947-6.884l-3.709 1.938c-5.415-11.587-13.037-24.296-22.749-37.96l33.478-23.441c43.089-13.469 90.795-13.495 135.278 1.591 3.922 1.331 8.181-.771 9.512-4.694 1.33-3.923-.772-8.181-4.693-9.511-36.675-12.437-75.454-15.265-112.337-9.305 4.026-7.44 2.749-16.686-3.311-22.747l-4.128-4.127c-16.194-16.195-40.713-19.95-61.014-9.345l-43.063 22.498c-25.429-24.284-67.271-25.591-90.346-2.516-23.075 23.076-21.768 64.917 2.517 90.345l-22.498 43.064c-10.605 20.299-6.85 44.819 9.345 61.015l4.128 4.127c4.231 4.232 10.267 6.347 16.474 5.411-17.966 97.473 27.227 193.932 110.801 243.336 3.579 2.116 8.174.912 10.273-2.64 2.108-3.565.926-8.165-2.64-10.272-86.583-51.186-125.836-153.433-98.999-247.779l32.197-45.982c13.664 9.712 26.373 17.333 37.96 22.749-.603 1.775-9.397 13.63-5.239 30.613-16.506 6.4-35.145 13.688-35.27 34.498-.181 29.948 38.21 59.952 58.208 37.651 12.502-13.94 40.149-13.31 43.369-1.855 4.027 14.327-7.978 32.294-14.969 44.156-21.464 36.414 42.023 57.792 48.316 74.43 11.198 29.609-2.869 51.572-17.415 72.59-5.852-1.755-11.642-3.746-17.356-6.002-3.851-1.52-8.209.37-9.729 4.223-1.521 3.853.37 8.209 4.223 9.73 27.242 10.752 56.032 16.204 85.572 16.204 111.883 0 206.459-79.19 228.417-186.094 1.577-.246 3.152-.501 4.719-.78 17.296-3.088 18.568-27.375 1.69-32.165zm-220.559-108.461c8.611-27.752 17.815-46.936 58.045-40.966 29.852 4.427 47.649-17.782 61.83-36.848 55.871 43.5 86.907 111.182 83.825 181.374-12.369-3.679-24.439-7.46-36.191-11.335 1.274-15.126-6.633-33.66-15.67-51.716-11.217-22.413-27.75-21.354-43.733-20.326-4.939.317-10.043.645-15.537.448-25.634-.909-31.364 18.23-34.44 28.516-.008.027-.016.053-.024.08-22.654-10.691-43.099-21.759-61.092-33.088.355-5.45 1.349-10.863 2.987-16.139zm152.619 87.209c-29.101-10.021-56.115-20.619-80.758-31.658 3.899-12.607 6.083-20.417 20.173-19.929 26.012.932 37.029-7.106 46.392 11.601 6.543 13.075 13.549 28.604 14.193 39.986zm-265.799-246.008c14.461-7.555 31.925-4.879 43.462 6.657l4.127 4.127c1.859 1.859 1.591 4.941-.564 6.451l-55.678 38.986c-9.186-11.953-19.882-24.513-30.435-35.8zm-129.807 194.067c-1.508 2.154-4.591 2.425-6.451.564l-4.128-4.127c-11.536-11.536-14.21-29.002-6.656-43.462l20.421-39.088c11.287 10.554 23.847 21.249 35.8 30.435zm3.623-106.539c-19.312-19.312-21.011-52.788-3.564-70.234 17.68-17.679 51.182-15.489 70.234 3.564 24.981 24.981 58.802 65.781 71.903 98.548 1.645 4.116 6.496 5.922 10.437 3.863l10.848-5.667c9.115-4.763 20.123-3.075 27.395 4.196.802.802.692 2.13-.244 2.786l-43.128 30.198c-3.885 2.72-7.235 6.07-9.957 9.957l-30.198 43.127c-.651.929-1.976 1.054-2.787.244-7.271-7.271-8.957-18.28-4.196-27.395l5.668-10.848c2.057-3.938.256-8.791-3.863-10.437-32.767-13.1-73.567-46.921-98.548-71.902zm225.094 383.769c-16.048 0-31.854-1.73-47.277-5.139 14.474-21.382 28.991-47.6 16.014-81.912-3.609-9.541-14.268-17.351-25.552-25.62-22.175-16.248-30.393-24.825-23.872-35.887 8.042-13.643 22.384-34.856 16.488-55.832-6.966-24.788-49.419-25.909-68.976-4.101-8.872 9.88-32.149-9.618-32.041-27.546.061-10.15 9.859-14.463 25.84-20.659.27-.104.538-.214.807-.319 1.144 1.551 2.41 3.035 3.808 4.433 7.404 7.404 19.686 6.314 25.68-2.247l6.571-9.385c35.606 23.921 100.445 55.444 163.79 74.679-10.941 15.166-20.14 40.428-10.469 62.482 10.505 23.96-2.948 70.419 32.699 110.429-26.284 10.884-54.661 16.624-83.51 16.624zm97.907-23.211c-36.065-36.676-20.653-80.892-33.358-109.864-6.741-15.373-.262-35.205 9.15-48.04 1.077-1.469 2.36-2.675 3.93-3.705 43.215 11.806 90.749 19.488 135.014 15.626-14.313 62.245-55.89 116.457-114.736 145.983zm132.594-163.43c-63.903 11.398-138.128-7.393-189.143-25.163-56.089-19.539-106.793-45.726-135.261-64.701l15.019-21.449c1.715-2.449 3.826-4.56 6.274-6.274l25.261-17.688c71.071 66.521 204.1 111.311 278.082 132.309.373.105 1.147.325 1.089 1.491-.062 1.25-.976 1.413-1.321 1.475zm-421.419-251.722c-4.81 3.099-8.961 6.383-12.339 9.761-3.377 3.376-6.66 7.527-9.761 12.338-2.244 3.481-1.24 8.123 2.241 10.367 3.504 2.259 8.138 1.218 10.367-2.241 2.524-3.917 5.135-7.233 7.759-9.857 2.626-2.625 5.942-5.236 9.857-7.759 3.482-2.244 4.486-6.885 2.242-10.367-2.243-3.483-6.886-4.485-10.366-2.242z"/></g></svg>